In Roman-ruled Britain, a young Roman soldier endeavors to honor his father's memory by finding his lost legion's golden emblem...
 
http://www.imdb.com/title/tt1034389/

Subs: Dutch, English (srt). Hardcoded English subs for foreign parts only.


Het is het jaar 140, 20 jaar eerder marcheerden het Negende Legioen van Rome, onder het bevel van Flavius Aquila, naar het noorden. Het keerde nooit meer terug. Flavius's zoon Marcus is vastbesloten om de geschonden reputatie van zijn vader te herstellen. Alleen begeleid door zijn slaaf Esca rijdt Marcus uit naar het noorden. Tijdens de reis beseft Marcus dat de verdwijning van zijn vader mogelijk gekoppeld is aan de mysterieuze identiteit van Esca. Het mysterie wordt steeds groter wanneer ze tegenover de krijgers van de angstaanjagende Seal Prins komen te staan...
 
http://www.moviemeter.nl/film/61589

Ondertitels: Engels, Nederlands (srt). Ingebakken Engelse subs voor enkele niet Engels gesproken delen.

General
Complete name                    : The Eagle-AC3-XviD-BRRip 2011 TBS\The Eagle-AC3-XviD-BRRip 2011.avi
Format                           : AVI
Format/Info                      : Audio Video Interleave
File size                        : 1.82 GiB
Duration                         : 1h 54mn
Overall bit rate                 : 2 283 Kbps
Writing application              : VirtualDubMod 1.5.4.1 (build 2178/release)
Writing library                  : VirtualDubMod build 2178/release
Source                           : The.Eagle.2011.UNRATED.720p.BluRay.X264-AMIABLE

Video
ID                               : 0
Format                           : MPEG-4 Visual
Format profile                   : Simple@L3
Format settings, BVOP            : No
Format settings, QPel            : No
Format settings, GMC             : No warppoints
Format settings, Matrix          : Default (H.263)
Codec ID                         : XVID
Codec ID/Hint                    : XviD
Duration                         : 1h 54mn
Bit rate                         : 1 826 Kbps
Width                            : 720 pixels
Height                           : 304 pixels
Display aspect ratio             : 2.35:1
Frame rate                       : 23.976 fps
Color space                      : YUV
Chroma subsampling               : 4:2:0
Bit depth                        : 8 bits
Scan type                        : Progressive
Compression mode                 : Lossy
Bits/(Pixel*Frame)               : 0.348
Stream size                      : 1.46 GiB (80%)
Writing library                  : XviD 1.1.2 (UTC 2006-11-01)

Audio
ID                               : 1
Format                           : AC-3
Format/Info                      : Audio Coding 3
Mode extension                   : CM (complete main)
Codec ID                         : 2000
Duration                         : 1h 54mn
Bit rate mode                    : Constant
Bit rate                         : 448 Kbps
Channel(s)                       : 6 channels
Channel positions                : Front: L C R, Side: L R, LFE
Sampling rate                    : 48.0 KHz
Bit depth                        : 16 bits
Compression mode                 : Lossy
Stream size                      : 366 MiB (20%)
Alignment                        : Split accross interleaves
Interleave, duration             : 42 ms (1.00 video frame)
Interleave, preload duration     : 500 ms

Thanks to Simply ReleaseS Toppers.

Enjoy...

TBS.